<svg xmlns="http://www.w3.org/2000/svg" height="24" viewBox="0 0 24 24" width="24"><path d="m17.5 12c3.0375661 0 5.5 2.4624339 5.5 5.5s-2.4624339 5.5-5.5 5.5-5.5-2.4624339-5.5-5.5 2.4624339-5.5 5.5-5.5zm0 1.9992349-.0898756.0080557c-.2040931.0370439-.3650248.1979756-.4020687.4020687l-.0080557.0898756-.0003502 2.5-2.502.0007651-.0898756.0080557c-.2040931.0370439-.3650248.1979756-.4020687.4020687l-.0080557.0898756.0080557.0898756c.0370439.2040931.1979756.3650248.4020687.4020687l.0898756.0080557 2.503-.0007651.0004578 2.5042498.0080557.0898756c.037044.2040931.1979757.3650248.4020687.4020687l.0898756.0080557.0898757-.0080557c.204093-.0370439.3650247-.1979756.4020687-.4020687l.0080556-.0898756-.0004578-2.5042498 2.5039157.0007651.0898756-.0080557c.2040931-.0370439.3650248-.1979756.4020687-.4020687l.0080557-.0898756-.0080557-.0898756c-.0370439-.2040931-.1979756-.3650248-.4020687-.4020687l-.0898756-.0080557-2.5049157-.0007651.0003502-2.5-.0080557-.0898756c-.0370439-.2040931-.1979756-.3650248-.4020687-.4020687zm-5.47805.0005588c-.6469025 1.0103433-1.02195 2.2114763-1.02195 3.5002063 0 .8838153.1763947 1.7264314.4958991 2.4945634-2.55384324-.1372307-3.9958991-1.2214562-3.9958991-3.2445634v-1c0-.9664983.78350169-1.75 1.75-1.75zm-3.89595442-4.9997086c-.08225034.3195943-.12599558.65464598-.12599558.9999149 0 1.1155313.45664565 2.1244073 1.19320511 2.8498962l.16205416.1510599-.10525927-.0009561c-.30134634 0-.59137186.0484702-.86270563.1380397-.86474699.2854601-1.53963972.9883705-1.78607433 1.8701272l-.03442954.00087c-2.9089294 0-4.5667905-1.0898253-4.5667905-3.2590369v-1c0-.9181734.70711027-1.67119234 1.60647279-1.7441988l.14352721-.0058012zm3.87400442-2.0000851c1.6568542 0 3 1.34314575 3 3 0 1.6568542-1.3431458 3-3 3s-3-1.3431458-3-3c0-1.65685425 1.3431458-3 3-3zm8.25 2c.9664983 0 1.75.78350169 1.75 1.75l-.0010623.9620717c.0196526.3688435-.0102137.706992-.087443 1.014318-1.1596557-1.0719693-2.7091512-1.7263897-4.4114947-1.7263897-.5853018 0-1.1525349.077361-1.6920322.2224158.1251437-.3841567.1920322-.7954749.1920322-1.2224158 0-.34526892-.0437452-.6803206-.1259956-.9999149zm-13.75-7c1.65685425 0 3 1.34314575 3 3s-1.34314575 3-3 3-3-1.34314575-3-3 1.34314575-3 3-3zm11 0c1.6568542 0 3 1.34314575 3 3s-1.3431458 3-3 3-3-1.34314575-3-3 1.3431458-3 3-3z" fill="#6d5dfc"/></svg>