<svg class="svg-icon" style="width: 1em; height: 1em;vertical-align: middle;fill: currentColor;overflow: hidden;" viewBox="0 0 1024 1024" version="1.1" xmlns="http://www.w3.org/2000/svg"><path d="M896 256h-42.666667V213.333333a42.666667 42.666667 0 0 0-85.333333 0v42.666667h-42.666667a42.666667 42.666667 0 0 0 0 85.333333h42.666667v42.666667a42.666667 42.666667 0 0 0 85.333333 0V341.333333h42.666667a42.666667 42.666667 0 0 0 0-85.333333zM426.666667 469.333333a170.666667 170.666667 0 1 0-170.666667-170.666666 170.666667 170.666667 0 0 0 170.666667 170.666666zM682.666667 896a42.666667 42.666667 0 0 0 42.666666-42.666667 298.666667 298.666667 0 0 0-597.333333 0 42.666667 42.666667 0 0 0 42.666667 42.666667"  /></svg>